<?xml version="1.0" encoding="utf-8"?>
<!-- Generator: Adobe Illustrator 22.0.0, SVG Export Plug-In . SVG Version: 6.00 Build 0)  -->
<svg version="1.1" xmlns="http://www.w3.org/2000/svg" xmlns:xlink="http://www.w3.org/1999/xlink" x="0px" y="0px"
	 viewBox="0 0 512 512" style="enable-background:new 0 0 512 512;" xml:space="preserve">
<style type="text/css">
	.st0{fill:#EFEFEF;}
	.st1{fill:#EDEDED;}
	.st2{fill:#E1902B;}
	.st3{fill:#827382;}
	.st4{fill:#98CDE6;}
	.st5{clip-path:url(#SVGID_2_);fill:#43B06D;}
	.st6{clip-path:url(#SVGID_2_);fill:#4D917B;}
	.st7{fill:#FFDBC5;}
	.st8{fill:#E8B494;}
	.st9{fill:#DB4646;}
	.st10{fill:#E7AD84;}
	.st11{fill:#9EC853;}
	.st12{fill:#EBB290;}
	.st13{fill:#2961A5;}
	.st14{fill:#D49670;}
	.st15{fill:#4D917B;}
	.st16{fill:#78BEDE;}
	.st17{fill:#D4CDC1;}
	.st18{fill:#A18FA1;}
	.st19{fill:#3D2A3D;}
	.st20{fill:#FF826E;}
	.st21{fill:#E6A585;}
	.st22{fill:#142A7A;}
	.st23{fill:#FFD66C;}
	.st24{fill:#00D3D5;}
	.st25{fill:#B9EAF0;}
	.st26{fill:#EDB87B;}
	.st27{clip-path:url(#SVGID_4_);}
	.st28{fill:#D9904C;}
	.st29{fill:#F7B58D;}
	.st30{fill:#F7C8AB;}
	.st31{fill:#BABABA;}
	.st32{fill:#163A63;}
	.st33{fill:#F5BB47;}
	.st34{fill:#FFE999;}
	.st35{clip-path:url(#SVGID_6_);}
	.st36{fill:#B3B3B3;}
	.st37{fill:#F2C9B1;}
	.st38{clip-path:url(#SVGID_8_);}
	.st39{fill:#F2D7C4;}
	.st40{fill:#5D5660;}
	.st41{fill:#3B2D3F;}
	.st42{fill:#997999;}
	.st43{fill:#170F17;}
	.st44{clip-path:url(#SVGID_10_);}
</style>
<g id="Layer_6">
</g>
<g id="Layer_9">
</g>
<g id="Layer_7">
	<g>
		<g>
			<path class="st12" d="M151.2,280.2c7.4,7.4,18.8,8.4,27.4,3.1c-5.1,9-3.8,20.5,3.8,28.1c7.8,7.8,19.7,8.9,28.7,3.5
				c-5.4,9-4.3,20.9,3.5,28.7c7.8,7.8,19.7,8.9,28.7,3.5c-5.4,9-4.3,20.9,3.5,28.7c9.2,9.2,24,9.2,33.2,0l89.4-89.4
				c40.6-40.6,45.1-102.6,9.9-137.7c-35.1-35.1-97.1-30.7-137.7,9.9l-90.4,90.4C142.6,257.7,142.6,271.6,151.2,280.2z"/>
			<path class="st7" d="M256.6,376.8c7.4-7.4,8.4-18.8,3-27.4c9,5.1,20.5,3.8,28.1-3.8c7.8-7.8,8.9-19.7,3.5-28.7
				c9,5.4,20.9,4.3,28.7-3.5c7.8-7.8,8.9-19.7,3.5-28.7c9,5.4,20.9,4.3,28.7-3.5c9.2-9.2,9.2-24,0-33.2l-89.4-89.4
				c-40.6-40.6-102.6-45.1-137.7-9.9c-35.1,35.1-30.7,97.1,9.9,137.7l90.4,90.4C234,385.4,248,385.4,256.6,376.8z"/>
			<path class="st12" d="M291.5,192c9.2-9.2,9.2-24,0-33.2l0,0c-9.2-9.2-24-9.2-33.2,0l-38.9,38.9c-9.2,9.2-9.2,24,0,33.2l0,0
				c9.2,9.2,24,9.2,33.2,0L291.5,192z"/>
			<g>
				<g>
					<g>
						<path class="st12" d="M284.6,259.1c15.4,15.4,30.7,30.7,46.1,46.1c4.3,4.3,10.9-2.3,6.6-6.6c-15.4-15.4-30.7-30.7-46.1-46.1
							C287,248.2,280.4,254.8,284.6,259.1L284.6,259.1z"/>
					</g>
				</g>
				<g>
					<g>
						<path class="st12" d="M254.2,289.5c15.4,15.4,30.7,30.7,46.1,46.1c4.3,4.3,10.9-2.3,6.6-6.6c-15.4-15.4-30.7-30.7-46.1-46.1
							C256.6,278.6,250,285.2,254.2,289.5L254.2,289.5z"/>
					</g>
				</g>
				<g>
					<g>
						<path class="st12" d="M223.9,319.9c15.4,15.4,30.7,30.7,46.1,46.1c4.3,4.3,10.9-2.3,6.6-6.6c-15.4-15.4-30.7-30.7-46.1-46.1
							C226.2,309,219.6,315.6,223.9,319.9L223.9,319.9z"/>
					</g>
				</g>
			</g>
		</g>
	</g>
</g>
</svg>
